<mxfile host="Electron" agent="Mozilla/5.0 (Windows NT 10.0; Win64; x64) AppleWebKit/537.36 (KHTML, like Gecko) draw.io/26.0.16 Chrome/132.0.6834.196 Electron/34.2.0 Safari/537.36" version="26.0.16">
  <diagram name="Страница — 1" id="rh0AONjHpE_3diKH-o4A">
    <mxGraphModel dx="1434" dy="836" grid="1" gridSize="10" guides="1" tooltips="1" connect="1" arrows="1" fold="1" page="1" pageScale="1" pageWidth="827" pageHeight="1169" math="0" shadow="0">
      <root>
        <mxCell id="0" />
        <mxCell id="1" parent="0" />
        <mxCell id="dRnqPSM8dbN7AAyOsYSZ-2" value="&lt;p style=&quot;margin:0px;margin-top:6px;text-align:center;&quot;&gt;&lt;span style=&quot;background-color: initial;&quot;&gt;&amp;lt;&amp;lt;&lt;b&gt;c&lt;/b&gt;&lt;/span&gt;&lt;b&gt;omponent&amp;gt;&amp;gt;&lt;/b&gt;&lt;/p&gt;&lt;p style=&quot;margin:0px;margin-top:6px;text-align:center;&quot;&gt;&lt;b&gt;Десктопное приложение&lt;/b&gt;&lt;/p&gt;&lt;hr size=&quot;1&quot; style=&quot;border-style:solid;&quot;&gt;&lt;p style=&quot;margin:0px;margin-left:8px;&quot;&gt;&lt;br&gt;&lt;/p&gt;" style="align=left;overflow=fill;html=1;dropTarget=0;whiteSpace=wrap;" vertex="1" parent="1">
          <mxGeometry x="490" y="440" width="590" height="440" as="geometry" />
        </mxCell>
        <mxCell id="dRnqPSM8dbN7AAyOsYSZ-3" value="" style="shape=component;jettyWidth=8;jettyHeight=4;" vertex="1" parent="dRnqPSM8dbN7AAyOsYSZ-2">
          <mxGeometry x="1" width="20" height="20" relative="1" as="geometry">
            <mxPoint x="-24" y="4" as="offset" />
          </mxGeometry>
        </mxCell>
        <mxCell id="dRnqPSM8dbN7AAyOsYSZ-4" value="&lt;span style=&quot;background-color: initial;&quot;&gt;&amp;lt;&amp;lt;c&lt;/span&gt;omponent&amp;gt;&amp;gt;&lt;br&gt;&lt;b&gt;Запчасти&lt;/b&gt;" style="html=1;dropTarget=0;whiteSpace=wrap;" vertex="1" parent="1">
          <mxGeometry x="747" y="542" width="150" height="75" as="geometry" />
        </mxCell>
        <mxCell id="dRnqPSM8dbN7AAyOsYSZ-5" value="" style="shape=module;jettyWidth=8;jettyHeight=4;" vertex="1" parent="dRnqPSM8dbN7AAyOsYSZ-4">
          <mxGeometry x="1" width="20" height="20" relative="1" as="geometry">
            <mxPoint x="-27" y="7" as="offset" />
          </mxGeometry>
        </mxCell>
        <mxCell id="dRnqPSM8dbN7AAyOsYSZ-6" value="&lt;span style=&quot;background-color: initial;&quot;&gt;&amp;lt;&amp;lt;c&lt;/span&gt;omponent&amp;gt;&amp;gt;&lt;br&gt;&lt;b&gt;Добавление&lt;/b&gt;" style="html=1;dropTarget=0;whiteSpace=wrap;" vertex="1" parent="1">
          <mxGeometry x="822" y="750" width="150" height="75" as="geometry" />
        </mxCell>
        <mxCell id="dRnqPSM8dbN7AAyOsYSZ-7" value="" style="shape=module;jettyWidth=8;jettyHeight=4;" vertex="1" parent="dRnqPSM8dbN7AAyOsYSZ-6">
          <mxGeometry x="1" width="20" height="20" relative="1" as="geometry">
            <mxPoint x="-27" y="7" as="offset" />
          </mxGeometry>
        </mxCell>
        <mxCell id="dRnqPSM8dbN7AAyOsYSZ-8" value="&lt;span style=&quot;background-color: initial;&quot;&gt;&amp;lt;&amp;lt;c&lt;/span&gt;omponent&amp;gt;&amp;gt;&lt;br&gt;&lt;b&gt;Поставки&lt;/b&gt;" style="html=1;dropTarget=0;whiteSpace=wrap;" vertex="1" parent="1">
          <mxGeometry x="540" y="750" width="150" height="75" as="geometry" />
        </mxCell>
        <mxCell id="dRnqPSM8dbN7AAyOsYSZ-9" value="" style="shape=module;jettyWidth=8;jettyHeight=4;" vertex="1" parent="dRnqPSM8dbN7AAyOsYSZ-8">
          <mxGeometry x="1" width="20" height="20" relative="1" as="geometry">
            <mxPoint x="-27" y="7" as="offset" />
          </mxGeometry>
        </mxCell>
        <mxCell id="dRnqPSM8dbN7AAyOsYSZ-12" value="" style="shape=providedRequiredInterface;html=1;verticalLabelPosition=bottom;sketch=0;rotation=0;" vertex="1" parent="1">
          <mxGeometry x="740" y="774.5" width="26" height="26" as="geometry" />
        </mxCell>
        <mxCell id="dRnqPSM8dbN7AAyOsYSZ-13" value="" style="endArrow=none;startArrow=none;endFill=0;startFill=0;endSize=8;startSize=10;html=1;rounded=0;exitX=0;exitY=0.5;exitDx=0;exitDy=0;exitPerimeter=0;" edge="1" parent="1" source="dRnqPSM8dbN7AAyOsYSZ-12" target="dRnqPSM8dbN7AAyOsYSZ-8">
          <mxGeometry width="160" relative="1" as="geometry">
            <mxPoint x="640" y="787" as="sourcePoint" />
            <mxPoint x="713" y="792.5799999999999" as="targetPoint" />
          </mxGeometry>
        </mxCell>
        <mxCell id="dRnqPSM8dbN7AAyOsYSZ-14" value="" style="endArrow=none;startArrow=none;endFill=0;startFill=0;endSize=8;startSize=10;html=1;rounded=0;exitX=0;exitY=0.5;exitDx=0;exitDy=0;entryX=1;entryY=0.5;entryDx=0;entryDy=0;entryPerimeter=0;" edge="1" parent="1" source="dRnqPSM8dbN7AAyOsYSZ-6" target="dRnqPSM8dbN7AAyOsYSZ-12">
          <mxGeometry width="160" relative="1" as="geometry">
            <mxPoint x="610" y="787.0799999999999" as="sourcePoint" />
            <mxPoint x="684" y="787.0799999999999" as="targetPoint" />
          </mxGeometry>
        </mxCell>
        <mxCell id="dRnqPSM8dbN7AAyOsYSZ-15" value="&lt;font style=&quot;font-size: 12px;&quot;&gt;Содержимое&amp;nbsp;&lt;/font&gt;&lt;div style=&quot;&quot;&gt;&lt;font style=&quot;font-size: 12px;&quot;&gt;поставки&lt;/font&gt;&lt;/div&gt;" style="text;html=1;align=center;verticalAlign=middle;resizable=0;points=[];autosize=1;strokeColor=none;fillColor=none;" vertex="1" parent="1">
          <mxGeometry x="680" y="795.5" width="100" height="40" as="geometry" />
        </mxCell>
        <mxCell id="dRnqPSM8dbN7AAyOsYSZ-16" value="" style="edgeStyle=orthogonalEdgeStyle;html=1;verticalAlign=bottom;endArrow=none;endSize=8;strokeColor=#000000;rounded=0;exitX=0.5;exitY=0;exitDx=0;exitDy=0;endFill=0;entryX=0.637;entryY=0.753;entryDx=0;entryDy=0;entryPerimeter=0;" edge="1" parent="1" source="dRnqPSM8dbN7AAyOsYSZ-8" target="dRnqPSM8dbN7AAyOsYSZ-48">
          <mxGeometry relative="1" as="geometry">
            <mxPoint x="624" y="604.3400000000001" as="targetPoint" />
            <mxPoint x="655" y="750" as="sourcePoint" />
            <Array as="points">
              <mxPoint x="615" y="610" />
            </Array>
          </mxGeometry>
        </mxCell>
        <mxCell id="dRnqPSM8dbN7AAyOsYSZ-17" value="Новая поставка" style="text;html=1;align=center;verticalAlign=middle;resizable=0;points=[];autosize=1;strokeColor=none;fillColor=none;" vertex="1" parent="1">
          <mxGeometry x="560" y="559" width="110" height="30" as="geometry" />
        </mxCell>
        <mxCell id="dRnqPSM8dbN7AAyOsYSZ-18" value="" style="html=1;whiteSpace=wrap;" vertex="1" parent="1">
          <mxGeometry x="475" y="590" width="28" height="28" as="geometry" />
        </mxCell>
        <mxCell id="dRnqPSM8dbN7AAyOsYSZ-19" value="" style="endArrow=none;startArrow=none;endFill=0;startFill=0;endSize=8;startSize=10;html=1;rounded=0;exitX=0.111;exitY=0.478;exitDx=0;exitDy=0;exitPerimeter=0;entryX=1;entryY=0.5;entryDx=0;entryDy=0;" edge="1" parent="1" target="dRnqPSM8dbN7AAyOsYSZ-18">
          <mxGeometry width="160" relative="1" as="geometry">
            <mxPoint x="603.3299999999999" y="603.3399999999999" as="sourcePoint" />
            <mxPoint x="500" y="603.5999999999999" as="targetPoint" />
          </mxGeometry>
        </mxCell>
        <mxCell id="dRnqPSM8dbN7AAyOsYSZ-20" value="" style="endArrow=none;startArrow=none;endFill=0;startFill=0;endSize=8;startSize=10;html=1;rounded=0;exitX=0;exitY=0.5;exitDx=0;exitDy=0;entryX=0.857;entryY=0.495;entryDx=0;entryDy=0;entryPerimeter=0;" edge="1" parent="1" source="dRnqPSM8dbN7AAyOsYSZ-18" target="dRnqPSM8dbN7AAyOsYSZ-21">
          <mxGeometry width="160" relative="1" as="geometry">
            <mxPoint x="427" y="603.5" as="sourcePoint" />
            <mxPoint x="400" y="604" as="targetPoint" />
          </mxGeometry>
        </mxCell>
        <mxCell id="dRnqPSM8dbN7AAyOsYSZ-21" value="" style="ellipse;html=1;shape=startState;fillColor=#FCFCFC;strokeColor=#000000;" vertex="1" parent="1">
          <mxGeometry x="380" y="589" width="30" height="30" as="geometry" />
        </mxCell>
        <mxCell id="dRnqPSM8dbN7AAyOsYSZ-22" value="Новая поставка" style="text;html=1;align=center;verticalAlign=middle;resizable=0;points=[];autosize=1;strokeColor=none;fillColor=none;" vertex="1" parent="1">
          <mxGeometry x="340" y="565" width="110" height="30" as="geometry" />
        </mxCell>
        <mxCell id="dRnqPSM8dbN7AAyOsYSZ-23" value="" style="html=1;whiteSpace=wrap;" vertex="1" parent="1">
          <mxGeometry x="1066" y="566" width="28" height="28" as="geometry" />
        </mxCell>
        <mxCell id="dRnqPSM8dbN7AAyOsYSZ-24" value="Запрос&amp;nbsp;&lt;div&gt;на получение&lt;/div&gt;&lt;div&gt;данных&lt;/div&gt;" style="text;html=1;align=center;verticalAlign=middle;resizable=0;points=[];autosize=1;strokeColor=none;fillColor=none;" vertex="1" parent="1">
          <mxGeometry x="930" y="595" width="100" height="60" as="geometry" />
        </mxCell>
        <mxCell id="dRnqPSM8dbN7AAyOsYSZ-25" value="" style="endArrow=none;startArrow=none;endFill=0;startFill=0;endSize=8;startSize=10;html=1;rounded=0;exitX=1;exitY=0.5;exitDx=0;exitDy=0;exitPerimeter=0;entryX=1;entryY=0.5;entryDx=0;entryDy=0;" edge="1" parent="1" source="dRnqPSM8dbN7AAyOsYSZ-30" target="dRnqPSM8dbN7AAyOsYSZ-4">
          <mxGeometry width="160" relative="1" as="geometry">
            <mxPoint x="980" y="580" as="sourcePoint" />
            <mxPoint x="890" y="579.5999999999999" as="targetPoint" />
          </mxGeometry>
        </mxCell>
        <mxCell id="dRnqPSM8dbN7AAyOsYSZ-27" value="" style="endArrow=none;startArrow=none;endFill=0;startFill=0;endSize=8;startSize=10;html=1;rounded=0;exitX=0;exitY=0.5;exitDx=0;exitDy=0;entryX=1;entryY=0.5;entryDx=0;entryDy=0;entryPerimeter=0;" edge="1" parent="1" source="dRnqPSM8dbN7AAyOsYSZ-23" target="dRnqPSM8dbN7AAyOsYSZ-30">
          <mxGeometry width="160" relative="1" as="geometry">
            <mxPoint x="1063" y="589" as="sourcePoint" />
            <mxPoint x="1006" y="580" as="targetPoint" />
          </mxGeometry>
        </mxCell>
        <mxCell id="dRnqPSM8dbN7AAyOsYSZ-28" value="&lt;span style=&quot;text-wrap-mode: wrap;&quot;&gt;&amp;lt;&amp;lt;delegate&amp;gt;&amp;gt;&lt;/span&gt;" style="text;html=1;align=center;verticalAlign=middle;resizable=0;points=[];autosize=1;strokeColor=none;fillColor=none;" vertex="1" parent="1">
          <mxGeometry x="500" y="577" width="100" height="30" as="geometry" />
        </mxCell>
        <mxCell id="dRnqPSM8dbN7AAyOsYSZ-29" value="&lt;span style=&quot;text-wrap: wrap;&quot;&gt;&amp;lt;&amp;lt;delegate&amp;gt;&amp;gt;&lt;/span&gt;" style="text;html=1;align=center;verticalAlign=middle;resizable=0;points=[];autosize=1;strokeColor=none;fillColor=none;" vertex="1" parent="1">
          <mxGeometry x="976" y="554" width="100" height="30" as="geometry" />
        </mxCell>
        <mxCell id="dRnqPSM8dbN7AAyOsYSZ-30" value="" style="shape=requiredInterface;html=1;verticalLabelPosition=bottom;sketch=0;rotation=-180;" vertex="1" parent="1">
          <mxGeometry x="965.5" y="568" width="13" height="26" as="geometry" />
        </mxCell>
        <mxCell id="dRnqPSM8dbN7AAyOsYSZ-31" value="" style="endArrow=none;startArrow=none;endFill=0;startFill=0;endSize=8;startSize=10;html=1;rounded=0;entryX=1;entryY=0.5;entryDx=0;entryDy=0;exitX=1;exitY=0.5;exitDx=0;exitDy=0;exitPerimeter=0;" edge="1" parent="1" source="dRnqPSM8dbN7AAyOsYSZ-32" target="dRnqPSM8dbN7AAyOsYSZ-23">
          <mxGeometry width="160" relative="1" as="geometry">
            <mxPoint x="1190" y="580" as="sourcePoint" />
            <mxPoint x="1150" y="576" as="targetPoint" />
          </mxGeometry>
        </mxCell>
        <mxCell id="dRnqPSM8dbN7AAyOsYSZ-32" value="" style="shape=requiredInterface;html=1;verticalLabelPosition=bottom;sketch=0;rotation=-180;" vertex="1" parent="1">
          <mxGeometry x="1160" y="567" width="13" height="26" as="geometry" />
        </mxCell>
        <mxCell id="dRnqPSM8dbN7AAyOsYSZ-33" value="Запрос&amp;nbsp;&lt;div&gt;на получение&lt;/div&gt;&lt;div&gt;данных&lt;/div&gt;" style="text;html=1;align=center;verticalAlign=middle;resizable=0;points=[];autosize=1;strokeColor=none;fillColor=none;" vertex="1" parent="1">
          <mxGeometry x="1120" y="507" width="100" height="60" as="geometry" />
        </mxCell>
        <mxCell id="dRnqPSM8dbN7AAyOsYSZ-34" value="&lt;span style=&quot;background-color: initial;&quot;&gt;&amp;lt;&amp;lt;c&lt;/span&gt;omponent&amp;gt;&amp;gt;&lt;br&gt;&lt;b&gt;Сервер приложений&lt;/b&gt;" style="html=1;dropTarget=0;whiteSpace=wrap;" vertex="1" parent="1">
          <mxGeometry x="1230" y="525.75" width="150" height="324.25" as="geometry" />
        </mxCell>
        <mxCell id="dRnqPSM8dbN7AAyOsYSZ-35" value="" style="shape=module;jettyWidth=8;jettyHeight=4;" vertex="1" parent="dRnqPSM8dbN7AAyOsYSZ-34">
          <mxGeometry x="1" width="20" height="20" relative="1" as="geometry">
            <mxPoint x="-27" y="7" as="offset" />
          </mxGeometry>
        </mxCell>
        <mxCell id="dRnqPSM8dbN7AAyOsYSZ-36" value="" style="endArrow=none;startArrow=none;endFill=0;startFill=0;endSize=8;startSize=10;html=1;rounded=0;entryX=1;entryY=0.5;entryDx=0;entryDy=0;exitX=-0.003;exitY=0.168;exitDx=0;exitDy=0;entryPerimeter=0;exitPerimeter=0;" edge="1" parent="1" source="dRnqPSM8dbN7AAyOsYSZ-34" target="dRnqPSM8dbN7AAyOsYSZ-32">
          <mxGeometry width="160" relative="1" as="geometry">
            <mxPoint x="1276" y="580.5799999999999" as="sourcePoint" />
            <mxPoint x="1210" y="580.5799999999999" as="targetPoint" />
          </mxGeometry>
        </mxCell>
        <mxCell id="dRnqPSM8dbN7AAyOsYSZ-37" value="&lt;span style=&quot;background-color: initial;&quot;&gt;&amp;lt;&amp;lt;c&lt;/span&gt;omponent&amp;gt;&amp;gt;&lt;br&gt;&lt;b&gt;База данных&lt;/b&gt;" style="html=1;dropTarget=0;whiteSpace=wrap;" vertex="1" parent="1">
          <mxGeometry x="1550" y="525.75" width="150" height="324.25" as="geometry" />
        </mxCell>
        <mxCell id="dRnqPSM8dbN7AAyOsYSZ-38" value="" style="shape=module;jettyWidth=8;jettyHeight=4;" vertex="1" parent="dRnqPSM8dbN7AAyOsYSZ-37">
          <mxGeometry x="1" width="20" height="20" relative="1" as="geometry">
            <mxPoint x="-27" y="7" as="offset" />
          </mxGeometry>
        </mxCell>
        <mxCell id="dRnqPSM8dbN7AAyOsYSZ-39" value="" style="endArrow=none;startArrow=none;endFill=0;startFill=0;endSize=8;startSize=10;html=1;rounded=0;entryX=0.997;entryY=0.169;entryDx=0;entryDy=0;exitX=1;exitY=0.5;exitDx=0;exitDy=0;exitPerimeter=0;entryPerimeter=0;" edge="1" parent="1" source="dRnqPSM8dbN7AAyOsYSZ-40" target="dRnqPSM8dbN7AAyOsYSZ-34">
          <mxGeometry width="160" relative="1" as="geometry">
            <mxPoint x="1480" y="580" as="sourcePoint" />
            <mxPoint x="1420" y="584" as="targetPoint" />
          </mxGeometry>
        </mxCell>
        <mxCell id="dRnqPSM8dbN7AAyOsYSZ-40" value="" style="shape=providedRequiredInterface;html=1;verticalLabelPosition=bottom;sketch=0;rotation=-180;" vertex="1" parent="1">
          <mxGeometry x="1453" y="567" width="26" height="26" as="geometry" />
        </mxCell>
        <mxCell id="dRnqPSM8dbN7AAyOsYSZ-41" value="" style="endArrow=none;startArrow=none;endFill=0;startFill=0;endSize=8;startSize=10;html=1;rounded=0;entryX=0;entryY=0.5;entryDx=0;entryDy=0;exitX=-0.007;exitY=0.167;exitDx=0;exitDy=0;entryPerimeter=0;exitPerimeter=0;" edge="1" parent="1" source="dRnqPSM8dbN7AAyOsYSZ-37" target="dRnqPSM8dbN7AAyOsYSZ-40">
          <mxGeometry width="160" relative="1" as="geometry">
            <mxPoint x="1570" y="579.5799999999999" as="sourcePoint" />
            <mxPoint x="1510" y="579.5799999999999" as="targetPoint" />
          </mxGeometry>
        </mxCell>
        <mxCell id="dRnqPSM8dbN7AAyOsYSZ-42" value="&lt;font style=&quot;font-size: 12px;&quot;&gt;Содержимое&amp;nbsp;&lt;/font&gt;&lt;div style=&quot;&quot;&gt;&lt;font style=&quot;font-size: 12px;&quot;&gt;поставки&lt;/font&gt;&lt;/div&gt;" style="text;html=1;align=center;verticalAlign=middle;resizable=0;points=[];autosize=1;strokeColor=none;fillColor=none;" vertex="1" parent="1">
          <mxGeometry x="735" y="735.5" width="100" height="40" as="geometry" />
        </mxCell>
        <mxCell id="dRnqPSM8dbN7AAyOsYSZ-43" value="Запрос&amp;nbsp;&lt;div&gt;на получение&lt;/div&gt;&lt;div&gt;данных&lt;/div&gt;" style="text;html=1;align=center;verticalAlign=middle;resizable=0;points=[];autosize=1;strokeColor=none;fillColor=none;" vertex="1" parent="1">
          <mxGeometry x="1370" y="574" width="100" height="60" as="geometry" />
        </mxCell>
        <mxCell id="dRnqPSM8dbN7AAyOsYSZ-44" value="Предоставление&lt;div&gt;данных&lt;/div&gt;" style="text;html=1;align=center;verticalAlign=middle;resizable=0;points=[];autosize=1;strokeColor=none;fillColor=none;" vertex="1" parent="1">
          <mxGeometry x="1440" y="534" width="120" height="40" as="geometry" />
        </mxCell>
        <mxCell id="dRnqPSM8dbN7AAyOsYSZ-45" value="" style="html=1;whiteSpace=wrap;" vertex="1" parent="1">
          <mxGeometry x="1066" y="774.5" width="28" height="28" as="geometry" />
        </mxCell>
        <mxCell id="dRnqPSM8dbN7AAyOsYSZ-46" value="" style="endArrow=none;startArrow=none;endFill=0;startFill=0;endSize=8;startSize=10;html=1;rounded=0;entryX=1;entryY=0.5;entryDx=0;entryDy=0;exitX=0.1;exitY=0.472;exitDx=0;exitDy=0;exitPerimeter=0;" edge="1" parent="1" source="dRnqPSM8dbN7AAyOsYSZ-47" target="dRnqPSM8dbN7AAyOsYSZ-6">
          <mxGeometry width="160" relative="1" as="geometry">
            <mxPoint x="1000" y="787" as="sourcePoint" />
            <mxPoint x="986" y="795.5" as="targetPoint" />
          </mxGeometry>
        </mxCell>
        <mxCell id="dRnqPSM8dbN7AAyOsYSZ-47" value="" style="ellipse;html=1;shape=startState;fillColor=#FCFCFC;strokeColor=#000000;" vertex="1" parent="1">
          <mxGeometry x="1000" y="770.25" width="36.5" height="36.5" as="geometry" />
        </mxCell>
        <mxCell id="dRnqPSM8dbN7AAyOsYSZ-48" value="" style="ellipse;html=1;shape=startState;fillColor=#FCFCFC;strokeColor=#000000;" vertex="1" parent="1">
          <mxGeometry x="596.75" y="582.5" width="36.5" height="36.5" as="geometry" />
        </mxCell>
        <mxCell id="dRnqPSM8dbN7AAyOsYSZ-49" value="" style="endArrow=none;startArrow=none;endFill=0;startFill=0;endSize=8;startSize=10;html=1;rounded=0;entryX=0.885;entryY=0.494;entryDx=0;entryDy=0;exitX=0;exitY=0.5;exitDx=0;exitDy=0;entryPerimeter=0;" edge="1" parent="1" source="dRnqPSM8dbN7AAyOsYSZ-45" target="dRnqPSM8dbN7AAyOsYSZ-47">
          <mxGeometry width="160" relative="1" as="geometry">
            <mxPoint x="1066" y="790" as="sourcePoint" />
            <mxPoint x="1034" y="790" as="targetPoint" />
          </mxGeometry>
        </mxCell>
        <mxCell id="dRnqPSM8dbN7AAyOsYSZ-50" value="Запрос&amp;nbsp;&lt;div&gt;на добавление&lt;/div&gt;&lt;div&gt;данных&lt;/div&gt;" style="text;html=1;align=center;verticalAlign=middle;resizable=0;points=[];autosize=1;strokeColor=none;fillColor=none;" vertex="1" parent="1">
          <mxGeometry x="963.25" y="715.5" width="110" height="60" as="geometry" />
        </mxCell>
        <mxCell id="dRnqPSM8dbN7AAyOsYSZ-51" value="" style="endArrow=none;startArrow=none;endFill=0;startFill=0;endSize=8;startSize=10;html=1;rounded=0;entryX=1;entryY=0.5;entryDx=0;entryDy=0;exitX=0.124;exitY=0.499;exitDx=0;exitDy=0;exitPerimeter=0;" edge="1" parent="1" source="dRnqPSM8dbN7AAyOsYSZ-53" target="dRnqPSM8dbN7AAyOsYSZ-45">
          <mxGeometry width="160" relative="1" as="geometry">
            <mxPoint x="1149.159" y="788.9015000000002" as="sourcePoint" />
            <mxPoint x="1100" y="787" as="targetPoint" />
          </mxGeometry>
        </mxCell>
        <mxCell id="dRnqPSM8dbN7AAyOsYSZ-52" value="Запрос&amp;nbsp;&lt;div&gt;на добавление&lt;/div&gt;&lt;div&gt;данных&lt;/div&gt;" style="text;html=1;align=center;verticalAlign=middle;resizable=0;points=[];autosize=1;strokeColor=none;fillColor=none;" vertex="1" parent="1">
          <mxGeometry x="1110" y="715.5" width="110" height="60" as="geometry" />
        </mxCell>
        <mxCell id="dRnqPSM8dbN7AAyOsYSZ-53" value="" style="ellipse;html=1;shape=startState;fillColor=#FCFCFC;strokeColor=#000000;" vertex="1" parent="1">
          <mxGeometry x="1148.25" y="770.25" width="36.5" height="36.5" as="geometry" />
        </mxCell>
        <mxCell id="dRnqPSM8dbN7AAyOsYSZ-54" value="" style="endArrow=none;startArrow=none;endFill=0;startFill=0;endSize=8;startSize=10;html=1;rounded=0;entryX=0.885;entryY=0.495;entryDx=0;entryDy=0;exitX=-0.004;exitY=0.81;exitDx=0;exitDy=0;exitPerimeter=0;entryPerimeter=0;" edge="1" parent="1" source="dRnqPSM8dbN7AAyOsYSZ-34" target="dRnqPSM8dbN7AAyOsYSZ-53">
          <mxGeometry width="160" relative="1" as="geometry">
            <mxPoint x="1243.75" y="787.3599999999999" as="sourcePoint" />
            <mxPoint x="1184.75" y="787.3599999999999" as="targetPoint" />
          </mxGeometry>
        </mxCell>
        <mxCell id="dRnqPSM8dbN7AAyOsYSZ-55" value="" style="shape=providedRequiredInterface;html=1;verticalLabelPosition=bottom;sketch=0;rotation=0;" vertex="1" parent="1">
          <mxGeometry x="1460" y="779.75" width="26" height="26" as="geometry" />
        </mxCell>
        <mxCell id="dRnqPSM8dbN7AAyOsYSZ-56" value="" style="endArrow=none;startArrow=none;endFill=0;startFill=0;endSize=8;startSize=10;html=1;rounded=0;entryX=0.998;entryY=0.824;entryDx=0;entryDy=0;exitX=0;exitY=0.5;exitDx=0;exitDy=0;exitPerimeter=0;entryPerimeter=0;" edge="1" parent="1" source="dRnqPSM8dbN7AAyOsYSZ-55" target="dRnqPSM8dbN7AAyOsYSZ-34">
          <mxGeometry width="160" relative="1" as="geometry">
            <mxPoint x="1428" y="795.5" as="sourcePoint" />
            <mxPoint x="1380" y="795.5" as="targetPoint" />
          </mxGeometry>
        </mxCell>
        <mxCell id="dRnqPSM8dbN7AAyOsYSZ-57" value="" style="endArrow=none;startArrow=none;endFill=0;startFill=0;endSize=8;startSize=10;html=1;rounded=0;entryX=1;entryY=0.5;entryDx=0;entryDy=0;exitX=-0.002;exitY=0.823;exitDx=0;exitDy=0;exitPerimeter=0;entryPerimeter=0;" edge="1" parent="1" source="dRnqPSM8dbN7AAyOsYSZ-37" target="dRnqPSM8dbN7AAyOsYSZ-55">
          <mxGeometry width="160" relative="1" as="geometry">
            <mxPoint x="1534" y="795.5" as="sourcePoint" />
            <mxPoint x="1470" y="795.5" as="targetPoint" />
          </mxGeometry>
        </mxCell>
        <mxCell id="dRnqPSM8dbN7AAyOsYSZ-58" value="Запрос&amp;nbsp;&lt;div&gt;на добавление&lt;/div&gt;&lt;div&gt;данных&lt;/div&gt;" style="text;html=1;align=center;verticalAlign=middle;resizable=0;points=[];autosize=1;strokeColor=none;fillColor=none;" vertex="1" parent="1">
          <mxGeometry x="1371" y="789" width="110" height="60" as="geometry" />
        </mxCell>
        <mxCell id="dRnqPSM8dbN7AAyOsYSZ-59" value="Получение&lt;div&gt;данных&lt;/div&gt;" style="text;html=1;align=center;verticalAlign=middle;resizable=0;points=[];autosize=1;strokeColor=none;fillColor=none;" vertex="1" parent="1">
          <mxGeometry x="1471" y="751" width="80" height="40" as="geometry" />
        </mxCell>
        <mxCell id="dRnqPSM8dbN7AAyOsYSZ-60" value="&lt;span style=&quot;text-wrap-mode: wrap;&quot;&gt;&amp;lt;&amp;lt;delegate&amp;gt;&amp;gt;&lt;/span&gt;" style="text;html=1;align=center;verticalAlign=middle;resizable=0;points=[];autosize=1;strokeColor=none;fillColor=none;" vertex="1" parent="1">
          <mxGeometry x="992" y="796" width="100" height="30" as="geometry" />
        </mxCell>
      </root>
    </mxGraphModel>
  </diagram>
</mxfile>
